<svg width="25" height="25" viewBox="0 0 25 25" fill="none" xmlns="http://www.w3.org/2000/svg">
<path d="M12.667 16.0948L16.667 12.0948M16.667 12.0948L12.667 8.09485M16.667 12.0948H8.66699M8.46699 21.0948H16.867C18.5471 21.0948 19.3872 21.0948 20.029 20.7679C20.5934 20.4802 21.0524 20.0213 21.34 19.4568C21.667 18.8151 21.667 17.975 21.667 16.2948V7.89485C21.667 6.21469 21.667 5.37461 21.34 4.73288C21.0524 4.16839 20.5934 3.70945 20.029 3.42183C19.3872 3.09485 18.5472 3.09485 16.867 3.09485H8.46699C6.78683 3.09485 5.94676 3.09485 5.30502 3.42183C4.74053 3.70945 4.28159 4.16839 3.99397 4.73288C3.66699 5.37461 3.66699 6.21469 3.66699 7.89485V16.2948C3.66699 17.975 3.66699 18.8151 3.99397 19.4568C4.28159 20.0213 4.74053 20.4802 5.30502 20.7679C5.94676 21.0948 6.78683 21.0948 8.46699 21.0948Z" stroke="#98A2B3" stroke-width="2" stroke-linecap="round" stroke-linejoin="round"/>
</svg>
