<svg width="40" height="41" viewBox="0 0 40 41" fill="none" xmlns="http://www.w3.org/2000/svg">
<circle cx="19.8169" cy="20.3573" r="19.7227" fill="#E04F16"/>
<path d="M24.9358 26.3573C27.2792 24.7724 28.8169 22.1352 28.8169 19.1423C28.8169 14.2906 24.7873 10.3573 19.8169 10.3573C14.8465 10.3573 10.8169 14.2906 10.8169 19.1423C10.8169 22.1352 12.3546 24.7724 14.698 26.3573M16.1766 22.3573C15.3356 21.5073 14.8169 20.3659 14.8169 19.1078C14.8169 16.4844 17.0557 14.3573 19.8169 14.3573C22.5781 14.3573 24.8169 16.4844 24.8169 19.1078C24.8169 20.3668 24.2981 21.5073 23.4572 22.3573M19.8169 30.3573C18.7123 30.3573 17.8169 29.4619 17.8169 28.3573V26.3573C17.8169 25.2527 18.7123 24.3573 19.8169 24.3573C20.9215 24.3573 21.8169 25.2527 21.8169 26.3573V28.3573C21.8169 29.4619 20.9215 30.3573 19.8169 30.3573ZM20.8169 19.3573C20.8169 19.9096 20.3692 20.3573 19.8169 20.3573C19.2646 20.3573 18.8169 19.9096 18.8169 19.3573C18.8169 18.805 19.2646 18.3573 19.8169 18.3573C20.3692 18.3573 20.8169 18.805 20.8169 19.3573Z" stroke="white" stroke-width="2" stroke-linecap="round" stroke-linejoin="round"/>
</svg>
