<svg width="24" height="25" viewBox="0 0 24 25" fill="none" xmlns="http://www.w3.org/2000/svg">
<path d="M12 8.09485L8 12.0948M8 12.0948L12 16.0948M8 12.0948H16M7.8 21.0948H16.2C17.8802 21.0948 18.7202 21.0948 19.362 20.7679C19.9265 20.4802 20.3854 20.0213 20.673 19.4568C21 18.8151 21 17.975 21 16.2948V7.89485C21 6.21469 21 5.37461 20.673 4.73288C20.3854 4.16839 19.9265 3.70945 19.362 3.42183C18.7202 3.09485 17.8802 3.09485 16.2 3.09485H7.8C6.11984 3.09485 5.27976 3.09485 4.63803 3.42183C4.07354 3.70945 3.6146 4.16839 3.32698 4.73288C3 5.37461 3 6.21469 3 7.89485V16.2948C3 17.975 3 18.8151 3.32698 19.4568C3.6146 20.0213 4.07354 20.4802 4.63803 20.7679C5.27976 21.0948 6.11984 21.0948 7.8 21.0948Z" stroke="#D0D5DD" stroke-width="2" stroke-linecap="round" stroke-linejoin="round"/>
</svg>
