<svg width="16" height="16" viewBox="0 0 16 16" fill="none" xmlns="http://www.w3.org/2000/svg">
<path d="M9.33366 1.51303V4.26673C9.33366 4.64009 9.33366 4.82678 9.40632 4.96938C9.47024 5.09483 9.57222 5.19681 9.69766 5.26073C9.84027 5.33339 10.027 5.33339 10.4003 5.33339H13.154M10.667 8.66668H5.33366M10.667 11.3333H5.33366M6.66699 6.00001H5.33366M9.33366 1.33334H5.86699C4.74689 1.33334 4.18683 1.33334 3.75901 1.55133C3.38269 1.74308 3.07673 2.04904 2.88498 2.42536C2.66699 2.85319 2.66699 3.41324 2.66699 4.53334V11.4667C2.66699 12.5868 2.66699 13.1468 2.88498 13.5747C3.07673 13.951 3.38269 14.2569 3.75901 14.4487C4.18683 14.6667 4.74689 14.6667 5.86699 14.6667H10.1337C11.2538 14.6667 11.8138 14.6667 12.2416 14.4487C12.618 14.2569 12.9239 13.951 13.1157 13.5747C13.3337 13.1468 13.3337 12.5868 13.3337 11.4667V5.33334L9.33366 1.33334Z" stroke="#667085" stroke-width="1.5" stroke-linecap="round" stroke-linejoin="round"/>
</svg>
