<svg width="25" height="24" viewBox="0 0 25 24" fill="none" xmlns="http://www.w3.org/2000/svg">
<path d="M12.6362 15C14.2931 15 15.6362 13.6569 15.6362 12C15.6362 10.3431 14.2931 9 12.6362 9C10.9794 9 9.63623 10.3431 9.63623 12C9.63623 13.6569 10.9794 15 12.6362 15Z" stroke="#D0D5DD" stroke-width="2" stroke-linecap="round" stroke-linejoin="round"/>
<path d="M19.3635 14.7273C19.2425 15.0015 19.2064 15.3056 19.2599 15.6005C19.3133 15.8954 19.4539 16.1676 19.6635 16.3818L19.7181 16.4364C19.8871 16.6052 20.0212 16.8057 20.1127 17.0265C20.2042 17.2472 20.2513 17.4838 20.2513 17.7227C20.2513 17.9617 20.2042 18.1983 20.1127 18.419C20.0212 18.6397 19.8871 18.8402 19.7181 19.0091C19.5492 19.1781 19.3487 19.3122 19.1279 19.4037C18.9072 19.4952 18.6706 19.5423 18.4317 19.5423C18.1927 19.5423 17.9562 19.4952 17.7354 19.4037C17.5147 19.3122 17.3142 19.1781 17.1453 19.0091L17.0908 18.9545C16.8765 18.745 16.6044 18.6044 16.3095 18.5509C16.0146 18.4974 15.7104 18.5335 15.4362 18.6545C15.1673 18.7698 14.938 18.9611 14.7765 19.205C14.615 19.4489 14.5283 19.7347 14.5271 20.0273V20.1818C14.5271 20.664 14.3356 21.1265 13.9946 21.4675C13.6536 21.8084 13.1912 22 12.709 22C12.2267 22 11.7643 21.8084 11.4233 21.4675C11.0823 21.1265 10.8908 20.664 10.8908 20.1818V20.1C10.8837 19.7991 10.7863 19.5073 10.6112 19.2625C10.4361 19.0176 10.1914 18.8312 9.90896 18.7273C9.63476 18.6063 9.3306 18.5702 9.0357 18.6236C8.74079 18.6771 8.46867 18.8177 8.25441 19.0273L8.19987 19.0818C8.03101 19.2509 7.83048 19.385 7.60976 19.4765C7.38903 19.568 7.15244 19.6151 6.9135 19.6151C6.67457 19.6151 6.43797 19.568 6.21725 19.4765C5.99652 19.385 5.796 19.2509 5.62714 19.0818C5.45809 18.913 5.32398 18.7124 5.23249 18.4917C5.14099 18.271 5.09389 18.0344 5.09389 17.7955C5.09389 17.5565 5.14099 17.3199 5.23249 17.0992C5.32398 16.8785 5.45809 16.678 5.62714 16.5091L5.68168 16.4545C5.89126 16.2403 6.03185 15.9682 6.08533 15.6733C6.1388 15.3784 6.1027 15.0742 5.98168 14.8C5.86645 14.5311 5.6751 14.3018 5.4312 14.1403C5.1873 13.9788 4.90149 13.8921 4.60896 13.8909H4.45441C3.9722 13.8909 3.50974 13.6994 3.16876 13.3584C2.82779 13.0174 2.63623 12.5549 2.63623 12.0727C2.63623 11.5905 2.82779 11.1281 3.16876 10.7871C3.50974 10.4461 3.9722 10.2545 4.45441 10.2545H4.53623C4.83713 10.2475 5.12896 10.1501 5.37378 9.97501C5.61859 9.79991 5.80506 9.55521 5.90896 9.27273C6.02997 8.99853 6.06607 8.69437 6.0126 8.39947C5.95913 8.10456 5.81854 7.83244 5.60896 7.61818L5.55441 7.56364C5.38536 7.39478 5.25126 7.19425 5.15976 6.97353C5.06826 6.7528 5.02116 6.51621 5.02116 6.27727C5.02116 6.03834 5.06826 5.80174 5.15976 5.58102C5.25126 5.36029 5.38536 5.15977 5.55441 4.99091C5.72327 4.82186 5.9238 4.68775 6.14452 4.59626C6.36524 4.50476 6.60184 4.45766 6.84078 4.45766C7.07971 4.45766 7.31631 4.50476 7.53703 4.59626C7.75775 4.68775 7.95828 4.82186 8.12714 4.99091L8.18168 5.04545C8.39594 5.25503 8.66806 5.39562 8.96297 5.4491C9.25787 5.50257 9.56203 5.46647 9.83623 5.34545H9.90896C10.1778 5.23022 10.4072 5.03887 10.5687 4.79497C10.7302 4.55107 10.8169 4.26526 10.818 3.97273V3.81818C10.818 3.33597 11.0096 2.87351 11.3506 2.53253C11.6916 2.19156 12.154 2 12.6362 2C13.1184 2 13.5809 2.19156 13.9219 2.53253C14.2629 2.87351 14.4544 3.33597 14.4544 3.81818V3.9C14.4556 4.19253 14.5423 4.47834 14.7038 4.72224C14.8653 4.96614 15.0946 5.15749 15.3635 5.27273C15.6377 5.39374 15.9419 5.42984 16.2368 5.37637C16.5317 5.3229 16.8038 5.18231 17.018 4.97273L17.0726 4.91818C17.2415 4.74913 17.442 4.61503 17.6627 4.52353C17.8834 4.43203 18.12 4.38493 18.359 4.38493C18.5979 4.38493 18.8345 4.43203 19.0552 4.52353C19.2759 4.61503 19.4765 4.74913 19.6453 4.91818C19.8144 5.08704 19.9485 5.28757 20.04 5.50829C20.1315 5.72901 20.1786 5.96561 20.1786 6.20455C20.1786 6.44348 20.1315 6.68008 20.04 6.9008C19.9485 7.12152 19.8144 7.32205 19.6453 7.49091L19.5908 7.54545C19.3812 7.75971 19.2406 8.03183 19.1871 8.32674C19.1337 8.62164 19.1698 8.9258 19.2908 9.2V9.27273C19.406 9.54161 19.5974 9.77093 19.8413 9.93245C20.0852 10.094 20.371 10.1807 20.6635 10.1818H20.818C21.3003 10.1818 21.7627 10.3734 22.1037 10.7144C22.4447 11.0553 22.6362 11.5178 22.6362 12C22.6362 12.4822 22.4447 12.9447 22.1037 13.2856C21.7627 13.6266 21.3003 13.8182 20.818 13.8182H20.7362C20.4437 13.8193 20.1579 13.906 19.914 14.0676C19.6701 14.2291 19.4787 14.4584 19.3635 14.7273Z" stroke="#D0D5DD" stroke-width="2" stroke-linecap="round" stroke-linejoin="round"/>
</svg>
