<svg width="73" height="74" viewBox="0 0 73 74" fill="none" xmlns="http://www.w3.org/2000/svg">
<g clip-path="url(#clip0_73_609)">
<path d="M0 13.3C0 8.81958 0 6.57937 0.871948 4.86808C1.63893 3.36278 2.86278 2.13893 4.36808 1.37195C6.07937 0.5 8.31958 0.5 12.8 0.5H60.2C64.6804 0.5 66.9206 0.5 68.6319 1.37195C70.1372 2.13893 71.3611 3.36278 72.1281 4.86808C73 6.57937 73 8.81958 73 13.3V60.7C73 65.1804 73 67.4206 72.1281 69.1319C71.3611 70.6372 70.1372 71.8611 68.6319 72.6281C66.9206 73.5 64.6804 73.5 60.2 73.5H12.8C8.31958 73.5 6.07937 73.5 4.36808 72.6281C2.86278 71.8611 1.63893 70.6372 0.871948 69.1319C0 67.4206 0 65.1804 0 60.7V13.3Z" fill="white"/>
<path d="M0 13.3C0 8.81958 0 6.57937 0.871948 4.86808C1.63893 3.36278 2.86278 2.13893 4.36808 1.37195C6.07937 0.5 8.31958 0.5 12.8 0.5H60.2C64.6804 0.5 66.9206 0.5 68.6319 1.37195C70.1372 2.13893 71.3611 3.36278 72.1281 4.86808C73 6.57937 73 8.81958 73 13.3V60.7C73 65.1804 73 67.4206 72.1281 69.1319C71.3611 70.6372 70.1372 71.8611 68.6319 72.6281C66.9206 73.5 64.6804 73.5 60.2 73.5H12.8C8.31958 73.5 6.07937 73.5 4.36808 72.6281C2.86278 71.8611 1.63893 70.6372 0.871948 69.1319C0 67.4206 0 65.1804 0 60.7V13.3Z" fill="url(#paint0_linear_73_609)"/>
<rect x="-0.615479" y="0.5" width="73" height="73" fill="#B93815"/>
<path fill-rule="evenodd" clip-rule="evenodd" d="M36.0078 6.04987C36.0078 6.04987 11.3945 18.2852 10.8159 18.472C10.2373 18.6589 9.6106 19.7976 10.816 20.5617C12.0214 21.3258 35.7764 32.6356 35.7764 32.6356C35.7764 32.6356 59.6468 20.6018 60.7368 19.9813C61.8268 19.3607 62.011 18.7637 60.8529 18.0076L36.0078 6.04987ZM35.8846 22.579C41.0541 22.579 45.2448 20.809 45.2448 18.6257C45.2448 16.4424 41.0541 14.6724 35.8846 14.6724C30.7151 14.6724 26.5243 16.4424 26.5243 18.6257C26.5243 20.809 30.7151 22.579 35.8846 22.579Z" fill="white"/>
<path d="M19.2455 37.3994C19.5803 36.829 20.4617 36.7316 20.9434 38.0396L26.0355 50.4277C27.1769 53.5177 25.8251 53.2114 25.1725 52.9053L13.8426 47.449C13.2426 47.1907 13.0274 46.3356 13.7114 45.591L19.2455 37.3994Z" fill="white"/>
<path fill-rule="evenodd" clip-rule="evenodd" d="M36.4988 34.6799L61.095 22.1281C62.6714 21.2627 63.3399 21.4019 63.3442 22.7085C63.3485 24.0152 63.5619 51.2947 63.5619 51.2947L38.6759 64.1367C37.3823 64.7193 36.5691 64.8537 36.5719 63.7739C36.5747 62.6942 36.4988 34.6799 36.4988 34.6799ZM46.8789 39.3418C46.4701 39.5645 46.3261 39.9259 46.3261 40.2849L46.5473 51.5039L56.3094 46.1708C56.6566 45.9723 56.7322 45.6842 56.7322 45.3253L56.6996 34.6591L46.8789 39.3418Z" fill="white"/>
<path fill-rule="evenodd" clip-rule="evenodd" d="M36.5 5.15109C18.9103 5.15109 4.65106 19.4103 4.65106 37C4.65106 54.5897 18.9103 68.8489 36.5 68.8489C54.0896 68.8489 68.3489 54.5897 68.3489 37C68.3489 19.4103 54.0896 5.15109 36.5 5.15109ZM4.47388 37C4.47388 19.3125 18.8124 4.97391 36.5 4.97391C54.1875 4.97391 68.5261 19.3125 68.5261 37C68.5261 54.6875 54.1875 69.0261 36.5 69.0261C18.8124 69.0261 4.47388 54.6875 4.47388 37Z" fill="#D0D5DD"/>
<path fill-rule="evenodd" clip-rule="evenodd" d="M36.5 28.0527C31.5583 28.0527 27.5522 32.0588 27.5522 37.0005C27.5522 41.9423 31.5583 45.9483 36.5 45.9483C41.4417 45.9483 45.4478 41.9423 45.4478 37.0005C45.4478 32.0588 41.4417 28.0527 36.5 28.0527ZM27.375 37.0005C27.375 31.9609 31.4604 27.8755 36.5 27.8755C41.5396 27.8755 45.625 31.9609 45.625 37.0005C45.625 42.0401 41.5396 46.1255 36.5 46.1255C31.4604 46.1255 27.375 42.0401 27.375 37.0005Z" fill="#D0D5DD"/>
<path fill-rule="evenodd" clip-rule="evenodd" d="M36.5 30.8864C33.124 30.8864 30.3871 33.6233 30.3871 36.9993C30.3871 40.3753 33.124 43.1122 36.5 43.1122C39.8761 43.1122 42.6129 40.3753 42.6129 36.9993C42.6129 33.6233 39.8761 30.8864 36.5 30.8864ZM30.21 36.9993C30.21 33.5254 33.0261 30.7093 36.5 30.7093C39.9739 30.7093 42.7901 33.5254 42.7901 36.9993C42.7901 40.4732 39.9739 43.2894 36.5 43.2894C33.0261 43.2894 30.21 40.4732 30.21 36.9993Z" fill="#D0D5DD"/>
<path d="M36.4114 0.5H36.5886V73.5H36.4114V0.5Z" fill="#D0D5DD"/>
<path d="M73 36.9109L73 37.0881L-7.74497e-09 37.0881L0 36.9109L73 36.9109Z" fill="#D0D5DD"/>
<path d="M60.6858 0.5H60.863V73.5H60.6858V0.5Z" fill="#D0D5DD"/>
<path d="M24.2742 0.5H24.4514V73.5H24.2742V0.5Z" fill="#D0D5DD"/>
<path d="M48.5486 0.5H48.7258V73.5H48.5486V0.5Z" fill="#D0D5DD"/>
<path d="M12.1372 0.5H12.3144V73.5H12.1372V0.5Z" fill="#D0D5DD"/>
<path d="M73 61.1848L73 61.362L-7.74497e-09 61.362L0 61.1848L73 61.1848Z" fill="#D0D5DD"/>
<path d="M73 24.7739L73 24.9511L-7.74497e-09 24.9511L0 24.7739L73 24.7739Z" fill="#D0D5DD"/>
<path d="M73 49.0479L73 49.225L-7.74497e-09 49.225L0 49.0478L73 49.0479Z" fill="#D0D5DD"/>
<path d="M73 12.637L73 12.8141L-7.74497e-09 12.8141L0 12.637L73 12.637Z" fill="#D0D5DD"/>
</g>
<path d="M0.1 13.3C0.1 11.0581 0.100078 9.38276 0.208661 8.05376C0.31715 6.72593 0.533455 5.75268 0.961049 4.91348C1.71845 3.42699 2.92699 2.21845 4.41348 1.46105C5.25268 1.03345 6.22593 0.81715 7.55376 0.708661C8.88276 0.600078 10.5581 0.6 12.8 0.6H60.2C62.4419 0.6 64.1172 0.600078 65.4462 0.708661C66.7741 0.81715 67.7473 1.03345 68.5865 1.46105C70.073 2.21845 71.2816 3.42699 72.0389 4.91347C72.4665 5.75268 72.6829 6.72593 72.7913 8.05376C72.8999 9.38276 72.9 11.0581 72.9 13.3V60.7C72.9 62.9419 72.8999 64.6172 72.7913 65.9462C72.6829 67.2741 72.4665 68.2473 72.0389 69.0865C71.2816 70.573 70.073 71.7816 68.5865 72.5389C67.7473 72.9665 66.7741 73.1829 65.4462 73.2913C64.1172 73.3999 62.4419 73.4 60.2 73.4H12.8C10.5581 73.4 8.88276 73.3999 7.55376 73.2913C6.22593 73.1829 5.25268 72.9665 4.41348 72.5389C2.92699 71.7816 1.71845 70.573 0.961049 69.0865C0.533455 68.2473 0.31715 67.2741 0.208661 65.9462C0.100078 64.6172 0.1 62.9419 0.1 60.7V13.3Z" stroke="#D0D5DD" stroke-width="0.2"/>
<defs>
<linearGradient id="paint0_linear_73_609" x1="36.5" y1="0.5" x2="36.5" y2="73.5" gradientUnits="userSpaceOnUse">
<stop stop-color="white"/>
<stop offset="1" stop-color="#D0D5DD"/>
</linearGradient>
<clipPath id="clip0_73_609">
<path d="M0 13.3C0 8.81958 0 6.57937 0.871948 4.86808C1.63893 3.36278 2.86278 2.13893 4.36808 1.37195C6.07937 0.5 8.31958 0.5 12.8 0.5H60.2C64.6804 0.5 66.9206 0.5 68.6319 1.37195C70.1372 2.13893 71.3611 3.36278 72.1281 4.86808C73 6.57937 73 8.81958 73 13.3V60.7C73 65.1804 73 67.4206 72.1281 69.1319C71.3611 70.6372 70.1372 71.8611 68.6319 72.6281C66.9206 73.5 64.6804 73.5 60.2 73.5H12.8C8.31958 73.5 6.07937 73.5 4.36808 72.6281C2.86278 71.8611 1.63893 70.6372 0.871948 69.1319C0 67.4206 0 65.1804 0 60.7V13.3Z" fill="white"/>
</clipPath>
</defs>
</svg>
